<?xml version="1.0" encoding="UTF-8"?>
<svg id="Layer_1" data-name="Layer 1" xmlns="http://www.w3.org/2000/svg" xmlns:xlink="http://www.w3.org/1999/xlink" viewBox="0 0 64 64">
  <defs>
    <style>
      .cls-1 {
        fill: none;
      }

      .cls-2 {
        fill: #803200;
      }

      .cls-3 {
        fill: gray;
      }

      .cls-4 {
        fill: #ff6400;
      }

      .cls-5 {
        fill: #bf2500;
      }

      .cls-6 {
        fill: #fff;
      }

      .cls-7 {
        clip-path: url(#clippath);
      }

      .cls-8 {
        fill: #ff3200;
      }
    </style>
    <clipPath id="clippath">
      <path class="cls-1" d="M30.23,14.28l-10.71,29.46c-.67,1.84,1.57,3.35,3.03,2.04l9.45-8.51,9.45,8.51c1.46,1.31,3.7-.2,3.03-2.04l-10.71-29.46c-.6-1.65-2.94-1.65-3.54,0Z"/>
    </clipPath>
  </defs>
  <circle cx="32" cy="32" r="32"/>
  <g>
    <g>
      <g class="cls-7">
        <g>
          <polygon class="cls-2" points="47.06 50.82 32 37.27 32 32 47.06 50.82"/>
          <polygon class="cls-5" points="32 32 32 37.27 16.94 50.82 32 32"/>
          <polygon class="cls-8" points="32 9.41 32 32 16.94 50.82 32 9.41"/>
          <polygon class="cls-4" points="47.06 50.82 32 32 32 9.41 47.06 50.82"/>
        </g>
      </g>
      <circle class="cls-1" cx="32" cy="32" r="25.41"/>
    </g>
    <g>
      <path class="cls-8" d="M32,9.5c-.42,0-.75-.34-.75-.75v-4.04c0-.42.34-.75.75-.75s.75.34.75.75v4.04c0,.42-.34.75-.75.75Z"/>
      <g>
        <path class="cls-6" d="M20.38,12.62c-.26,0-.51-.14-.65-.38l-2.02-3.5c-.21-.36-.08-.82.28-1.03.36-.21.82-.08,1.03.28l2.02,3.5c.21.36.08.82-.28,1.03-.12.07-.25.1-.38.1Z"/>
        <path class="cls-6" d="M11.86,21.13c-.13,0-.26-.03-.38-.1l-3.5-2.02c-.36-.21-.48-.67-.28-1.03.21-.36.67-.48,1.03-.28l3.5,2.02c.36.21.48.67.28,1.03-.14.24-.39.38-.65.38Z"/>
        <path class="cls-6" d="M8.75,32.75h-4.04c-.42,0-.75-.34-.75-.75s.34-.75.75-.75h4.04c.42,0,.75.34.75.75s-.34.75-.75.75Z"/>
        <path class="cls-6" d="M8.36,46.4c-.26,0-.51-.14-.65-.38-.21-.36-.08-.82.28-1.03l3.5-2.02c.36-.21.82-.08,1.03.28s.08.82-.28,1.03l-3.5,2.02c-.12.07-.25.1-.38.1Z"/>
        <path class="cls-6" d="M18.35,56.39c-.13,0-.26-.03-.38-.1-.36-.21-.48-.67-.28-1.03l2.02-3.5c.21-.36.67-.48,1.03-.28.36.21.48.67.28,1.03l-2.02,3.5c-.14.24-.39.38-.65.38Z"/>
        <path class="cls-6" d="M32,60.05c-.42,0-.75-.34-.75-.75v-4.04c0-.42.34-.75.75-.75s.75.34.75.75v4.04c0,.42-.34.75-.75.75Z"/>
        <path class="cls-6" d="M45.65,56.39c-.26,0-.51-.14-.65-.38l-2.02-3.5c-.21-.36-.08-.82.28-1.03.36-.21.82-.08,1.03.28l2.02,3.5c.21.36.08.82-.28,1.03-.12.07-.25.1-.38.1Z"/>
        <path class="cls-6" d="M55.64,46.4c-.13,0-.26-.03-.38-.1l-3.5-2.02c-.36-.21-.48-.67-.28-1.03.21-.36.67-.48,1.03-.28l3.5,2.02c.36.21.48.67.28,1.03-.14.24-.39.38-.65.38Z"/>
        <path class="cls-6" d="M59.29,32.75h-4.04c-.42,0-.75-.34-.75-.75s.34-.75.75-.75h4.04c.42,0,.75.34.75.75s-.34.75-.75.75Z"/>
        <path class="cls-6" d="M52.14,21.13c-.26,0-.51-.14-.65-.38-.21-.36-.08-.82.28-1.03l3.5-2.02c.36-.21.82-.08,1.03.28s.08.82-.28,1.03l-3.5,2.02c-.12.07-.25.1-.38.1Z"/>
        <path class="cls-6" d="M43.62,12.62c-.13,0-.26-.03-.38-.1-.36-.21-.48-.67-.28-1.03l2.02-3.5c.21-.36.67-.48,1.03-.28.36.21.48.67.28,1.03l-2.02,3.5c-.14.24-.39.38-.65.38Z"/>
      </g>
    </g>
    <g>
      <path class="cls-3" d="M25.72,9.32c-.33,0-.64-.22-.73-.56l-.52-1.95c-.11-.4.13-.81.53-.92.4-.11.81.13.92.53l.52,1.95c.11.4-.13.81-.53.92-.07.02-.13.03-.2.03Z"/>
      <path class="cls-3" d="M14.84,15.6c-.19,0-.39-.07-.53-.22l-1.43-1.43c-.29-.29-.29-.77,0-1.06.29-.29.77-.29,1.06,0l1.43,1.43c.29.29.29.77,0,1.06-.15.15-.34.22-.53.22Z"/>
      <path class="cls-3" d="M8.57,26.47c-.06,0-.13,0-.2-.03l-1.95-.52c-.4-.11-.64-.52-.53-.92.11-.4.52-.64.92-.53l1.95.52c.4.11.64.52.53.92-.09.34-.39.56-.73.56Z"/>
      <path class="cls-3" d="M6.61,39.56c-.33,0-.64-.22-.73-.56-.11-.4.13-.81.53-.92l1.95-.52c.4-.11.81.13.92.53.11.4-.13.81-.53.92l-1.95.52c-.07.02-.13.03-.2.03Z"/>
      <path class="cls-3" d="M13.41,51.34c-.19,0-.39-.07-.53-.22-.29-.29-.29-.77,0-1.06l1.43-1.43c.29-.29.77-.29,1.06,0,.29.29.29.77,0,1.06l-1.43,1.43c-.15.15-.34.22-.53.22Z"/>
      <path class="cls-3" d="M25.2,58.14c-.06,0-.13,0-.2-.03-.4-.11-.64-.52-.53-.92l.52-1.95c.11-.4.52-.64.92-.53.4.11.64.52.53.92l-.52,1.95c-.09.34-.39.56-.73.56Z"/>
      <path class="cls-3" d="M38.8,58.14c-.33,0-.64-.22-.73-.56l-.52-1.95c-.11-.4.13-.81.53-.92.4-.11.81.13.92.53l.52,1.95c.11.4-.13.81-.53.92-.07.02-.13.03-.2.03Z"/>
      <path class="cls-3" d="M50.59,51.34c-.19,0-.39-.07-.53-.22l-1.43-1.43c-.29-.29-.29-.77,0-1.06.29-.29.77-.29,1.06,0l1.43,1.43c.29.29.29.77,0,1.06-.15.15-.34.22-.53.22Z"/>
      <path class="cls-3" d="M57.39,39.56c-.06,0-.13,0-.2-.03l-1.95-.52c-.4-.11-.64-.52-.53-.92.11-.4.52-.64.92-.53l1.95.52c.4.11.64.52.53.92-.09.34-.39.56-.73.56Z"/>
      <path class="cls-3" d="M55.43,26.47c-.33,0-.64-.22-.73-.56-.11-.4.13-.81.53-.92l1.95-.52c.4-.11.81.13.92.53.11.4-.13.81-.53.92l-1.95.52c-.07.02-.13.03-.2.03Z"/>
      <path class="cls-3" d="M49.16,15.6c-.19,0-.39-.07-.53-.22-.29-.29-.29-.77,0-1.06l1.43-1.43c.29-.29.77-.29,1.06,0,.29.29.29.77,0,1.06l-1.43,1.43c-.15.15-.34.22-.53.22Z"/>
      <path class="cls-3" d="M38.28,9.32c-.06,0-.13,0-.2-.03-.4-.11-.64-.52-.53-.92l.52-1.95c.11-.4.52-.64.92-.53.4.11.64.52.53.92l-.52,1.95c-.09.34-.39.56-.73.56Z"/>
    </g>
  </g>
</svg>