<?xml version="1.0" encoding="UTF-8"?>
<svg id="Layer_1" data-name="Layer 1" xmlns="http://www.w3.org/2000/svg" viewBox="0 0 64 64">
  <defs>
    <style>
      .cls-1 {
        fill: #002a6a;
      }

      .cls-2 {
        fill: #fff;
      }

      .cls-3 {
        fill: none;
        stroke: #c7b299;
        stroke-miterlimit: 10;
        stroke-width: 2px;
      }
    </style>
  </defs>
  <path class="cls-1" d="M32,0C14.33,0,0,14.33,0,32s14.33,32,32,32,32-14.33,32-32S49.67,0,32,0Z"/>
  <path class="cls-3" d="M32,3.84C16.45,3.84,3.84,16.45,3.84,32s12.61,28.16,28.16,28.16,28.16-12.61,28.16-28.16S47.55,3.84,32,3.84Z"/>
  <path class="cls-2" d="M50.58,30.77c-.41-1.3-1.01-2.41-1.78-3.32-.78-.92-1.71-1.62-2.8-2.12s-2.32-.75-3.68-.75c-1.83,0-3.57.44-5.24,1.31-1.67.87-3.13,2.05-4.38,3.53-1.25,1.48-2.25,3.2-3,5.15-.55,1.43-.89,2.93-1.03,4.48-.5.11-.99.19-1.45.19-2.8,0-4.92-.94-6.36-2.83-1.44-1.89-2.15-4.58-2.15-8.09,0-1.76.19-3.35.56-4.76.37-1.41.92-2.61,1.63-3.59.71-.98,1.59-1.74,2.63-2.27,1.04-.53,2.23-.8,3.56-.8,1.94,0,3.6.6,4.97,1.8,1.37,1.2,2.29,2.84,2.76,4.92h1.36l.68-8.58h-1.66l-.64,2.1c-1.4-.86-2.7-1.48-3.9-1.87-1.2-.38-2.49-.58-3.87-.58-2.08,0-3.97.33-5.68,1-1.71.67-3.18,1.61-4.41,2.83-1.23,1.22-2.19,2.68-2.87,4.37-.68,1.7-1.02,3.57-1.02,5.63s.32,3.75.97,5.36c.64,1.61,1.55,2.97,2.73,4.09,1.18,1.12,2.6,1.98,4.27,2.59,1.67.61,3.54.92,5.6.92,3.55,0,6.51-1,9-3.01-2.22-2.75-.74-6.91-.06-7.91.89-1.31,1.94-2.34,3.14-3.09,1-.62,2.06-.98,3.18-1.08l-5.62,22.8c-.87-.35-1.59-.95-2.15-1.81-.75-1.15-1.2-2.74-1.35-4.79-1.16.43-2.39.73-3.68.9.1.57.23,1.12.4,1.64.42,1.3,1.03,2.41,1.82,3.34.79.93,1.73,1.64,2.84,2.15,1.1.51,2.34.76,3.7.76,1.83,0,3.56-.44,5.21-1.3,1.65-.87,3.09-2.05,4.35-3.54,1.25-1.49,2.25-3.22,2.98-5.19.73-1.97,1.1-4.04,1.1-6.2,0-1.61-.21-3.06-.62-4.36ZM46.64,40.35c-.47,1.88-1.12,3.49-1.96,4.85-.84,1.36-1.83,2.42-2.96,3.19-1.14.77-2.37,1.15-3.71,1.15-.12,0-.24,0-.35,0l5.69-23.1c1.2.21,2.12.82,2.77,1.81.82,1.27,1.23,3.26,1.23,5.97,0,2.22-.23,4.26-.7,6.14Z"/>
</svg>