<?xml version="1.0" encoding="UTF-8"?>
<svg id="Layer_1" data-name="Layer 1" xmlns="http://www.w3.org/2000/svg" viewBox="0 0 64 64">
  <defs>
    <style>
      .cls-1 {
        fill: #fff;
      }

      .cls-2 {
        fill: #f05a28;
      }
    </style>
  </defs>
  <circle class="cls-2" cx="32" cy="32" r="32"/>
  <g>
    <polygon class="cls-1" points="57.94 37.54 51.51 31.11 24.1 31.11 17.04 38.16 22.75 43.86 29.07 37.54 32.01 37.54 29.47 50.59 36.02 57.14 39.43 37.54 57.94 37.54"/>
    <path class="cls-1" d="M29.15,18.68l-10.82,10.82,2.09,2.09-4.97,4.97-7.79-7.79L28.42,8l7.98,7.98c1.72,1.72,2.95,3.5,3.71,5.35.76,1.85,1.11,3.68,1.05,5.5-.02.66-.09,1.31-.21,1.96h-8.51c.05-.1.11-.19.16-.29.45-.88.71-1.75.77-2.62.07-.87-.06-1.73-.38-2.57-.32-.85-.84-1.63-1.56-2.35l-2.28-2.28Z"/>
  </g>
</svg>