<?xml version="1.0" encoding="UTF-8"?>
<svg id="Layer_1" data-name="Layer 1" xmlns="http://www.w3.org/2000/svg" viewBox="0 0 64 64">
  <defs>
    <style>
      .cls-1 {
        fill: #3fa7f3;
      }

      .cls-2 {
        fill: #0a64aa;
      }
    </style>
  </defs>
  <circle class="cls-1" cx="32" cy="32" r="32"/>
  <g>
    <path class="cls-2" d="M30.32,18.28c-11.74,1.41-19.51,21.99,1.6,25.78-11.76,7.41-5.96,14.03,1.83,13.22,7.31-.76,12.37-15.67-3.43-19.74,20.78,0,15.36-21.11,0-19.26Z"/>
    <g>
      <path class="cls-2" d="M21.61,17.06c1.19,1.14,1.59,2.52,1.13,3.06-.47.53-1.96.42-3.53-.23-1.56-.64-2.36-2.06-1.51-3.1.85-1.03,2.73-.88,3.91.27Z"/>
      <path class="cls-2" d="M26.68,13.75c.69,1.64.51,3.24-.15,3.61-.67.36-2.03-.37-3.28-1.65-1.24-1.27-1.48-2.96-.25-3.7,1.22-.73,3,.09,3.68,1.73Z"/>
      <path class="cls-2" d="M32.62,12.37c.02,2.05-.83,3.69-1.66,3.83-.83.12-1.89-1.22-2.6-3.07-.71-1.84-.25-3.73,1.28-4.07,1.53-.33,2.98,1.26,2.98,3.31Z"/>
      <path class="cls-2" d="M38.48,13.42c-.78,2.09-2.26,3.39-3.13,3.17-.88-.23-1.38-2.03-1.34-4.22.04-2.17,1.23-3.94,2.86-3.63,1.62.31,2.41,2.59,1.62,4.68Z"/>
      <path class="cls-2" d="M45.18,17.39c-1.86,2.02-4.19,2.68-5.13,1.89-.93-.82-.71-3.28.33-5.87,1.04-2.57,3.24-4.01,5-2.64,1.75,1.37,1.67,4.62-.2,6.63Z"/>
    </g>
  </g>
</svg>