<?xml version="1.0" encoding="UTF-8"?>
<svg id="Layer_1" data-name="Layer 1" xmlns="http://www.w3.org/2000/svg" xmlns:xlink="http://www.w3.org/1999/xlink" viewBox="0 0 64 64">
  <defs>
    <style>
      .cls-1 {
        fill: url(#linear-gradient);
      }

      .cls-2 {
        fill: #fff;
      }

      .cls-3 {
        fill: #4b4b4b;
      }
    </style>
    <linearGradient id="linear-gradient" x1="11.92" y1="32" x2="52.07" y2="32" gradientUnits="userSpaceOnUse">
      <stop offset="0" stop-color="#4b4b4b"/>
      <stop offset="1" stop-color="#c8c8c8"/>
    </linearGradient>
  </defs>
  <path class="cls-2" d="M63.99,10c0-5.52-4.48-10-10-10-3.02,0-5.71,1.34-7.55,3.45-4.34-2.2-9.25-3.45-14.45-3.45C14.32,0,0,14.33,0,32s14.33,32,32,32,32-14.33,32-32c0-5.2-1.25-10.11-3.45-14.45,2.11-1.83,3.45-4.53,3.45-7.55Z"/>
  <g>
    <polygon class="cls-3" points="51.89 14 58.39 10 51.89 6 51.89 14"/>
    <path class="cls-3" d="M53.99,2c-4.42,0-8,3.58-8,8s3.58,8,8,8,8-3.58,8-8-3.58-8-8-8ZM53.99,17c-3.86,0-7-3.14-7-7s3.14-7,7-7,7,3.14,7,7-3.14,7-7,7Z"/>
  </g>
  <g>
    <path class="cls-1" d="M51.43,32.93c.38-.14.64-.51.64-.91v-.02s0-.03,0-.03c0-.4-.25-.76-.63-.89l-.76-.28c-.58-.21-.98-.73-1.07-1.34,0,0,0-.02,0-.02-.08-.61.16-1.21.65-1.58l.65-.48c.33-.24.47-.67.35-1.06v-.02c-.12-.39-.47-.67-.88-.69l-.79-.05c-.62-.04-1.15-.42-1.4-.98,0,0,0-.01,0-.02-.25-.56-.19-1.21.18-1.7l.49-.64c.25-.33.26-.77.04-1.11v-.02c-.23-.35-.65-.52-1.05-.42l-.75.17c-.6.14-1.23-.07-1.64-.54l-.03-.04c-.39-.45-.5-1.09-.29-1.65l.29-.77c.14-.38.04-.81-.27-1.08h-.02c-.31-.28-.76-.33-1.12-.13l-.67.37c-.54.3-1.2.28-1.72-.06h-.02c-.52-.35-.81-.94-.76-1.55l.06-.79c.03-.41-.19-.79-.56-.96h0c-.38-.18-.82-.1-1.11.2l-.54.55c-.43.44-1.07.61-1.67.44h-.04c-.58-.18-1.02-.66-1.14-1.25l-.17-.79c-.08-.4-.41-.71-.81-.77h-.01c-.41-.06-.81.14-1,.5l-.38.71c-.29.54-.85.86-1.46.86h-.03c-.61,0-1.17-.33-1.45-.86l-.38-.71c-.19-.36-.6-.57-1-.51,0,0-.01,0-.02,0-.4.06-.73.37-.81.77l-.17.8c-.12.6-.57,1.07-1.16,1.24,0,0-.02,0-.03,0-.59.17-1.22.02-1.65-.42l-.56-.57c-.29-.3-.73-.38-1.11-.2,0,0,0,0-.01,0-.37.17-.59.56-.56.96l.07.82c.05.6-.25,1.18-.76,1.51,0,0-.02.01-.02.02-.51.33-1.17.37-1.7.07l-.69-.39c-.36-.2-.81-.16-1.12.12h-.02c-.31.28-.41.72-.27,1.1l.29.77c.22.57.09,1.2-.3,1.66,0,0-.01.02-.02.03-.4.46-1.01.68-1.61.54l-.77-.18c-.4-.09-.82.08-1.04.42,0,0,0,.01-.01.02-.22.34-.2.79.04,1.12l.49.65c.36.48.42,1.13.17,1.68,0,.01-.01.03-.02.04-.25.56-.78.93-1.39.97l-.8.05c-.41.03-.76.3-.87.69,0,0,0,.01,0,.02-.12.39.03.82.36,1.06l.65.48c.49.36.73.96.64,1.56,0,.02,0,.03,0,.05-.08.6-.48,1.12-1.05,1.33l-.76.28c-.38.14-.64.5-.64.9,0,.01,0,.02,0,.03s0,.02,0,.03c0,.4.26.76.64.9l.76.28c.57.21.97.72,1.05,1.33,0,.01,0,.03,0,.04.08.6-.16,1.2-.64,1.56l-.65.48c-.33.24-.47.67-.36,1.06,0,0,0,.02,0,.02.12.39.47.67.87.69l.8.05c.61.04,1.14.42,1.39.97,0,.01.01.03.02.04.25.55.19,1.19-.17,1.68l-.49.65c-.25.33-.26.77-.04,1.11,0,0,0,.01.01.02.22.35.64.51,1.04.42l.77-.18c.6-.14,1.21.08,1.61.54,0,0,.01.02.02.02.4.46.52,1.09.3,1.66l-.29.77c-.14.38-.04.81.27,1.08,0,0,.01,0,.02.01.31.27.76.32,1.12.12l.69-.39c.53-.3,1.18-.26,1.7.07,0,0,.02.01.02.02.51.33.81.9.76,1.51l-.07.82c-.03.41.19.79.56.96,0,0,0,0,.01,0,.37.17.82.09,1.11-.2l.56-.57c.43-.44,1.06-.59,1.64-.42,0,0,.02,0,.03,0,.58.17,1.03.64,1.16,1.24l.17.8c.08.4.41.71.81.77h.01c.41.06.81-.14,1-.51l.38-.71c.29-.54.85-.86,1.46-.86,0,0,0,0,.01,0s0,0,.01,0c.61,0,1.18.32,1.46.86l.38.71c.19.36.6.57,1,.51h.01c.41-.06.73-.37.81-.77l.17-.8c.12-.6.57-1.06,1.16-1.24,0,0,.02,0,.03,0,.59-.17,1.22-.02,1.64.42l.56.57c.29.3.73.38,1.11.2h.01c.37-.18.59-.56.56-.97l-.07-.82c-.05-.61.25-1.18.76-1.51,0,0,.02-.01.02-.02.51-.33,1.16-.37,1.7-.07l.69.39c.36.2.81.15,1.12-.12h.02c.31-.28.41-.71.27-1.1l-.29-.77c-.22-.57-.09-1.2.3-1.66,0,0,.01-.02.02-.03.4-.46,1.01-.68,1.61-.54l.78.18c.4.09.82-.08,1.04-.42v-.02c.23-.34.22-.79-.03-1.11l-.49-.65c-.37-.49-.43-1.14-.18-1.7,0,0,0-.01,0-.02.25-.56.79-.94,1.4-.98l.79-.05c.41-.03.76-.3.87-.69v-.02c.12-.39-.02-.82-.35-1.06l-.65-.48c-.49-.36-.73-.97-.65-1.58,0,0,0-.02,0-.02.08-.61.49-1.13,1.07-1.34l.75-.27Z"/>
    <g>
      <circle class="cls-2" cx="31.99" cy="32" r="16.06"/>
      <path class="cls-3" d="M23.93,20.83c.16.01.12.19.05.31-.16.24-.45.35-.49.17-.03-.16.22-.47.44-.49ZM24.82,18.28c0,.09.21,0,.4-.16.1-.09.22-.22.12-.23-.17.01-.51.28-.52.39ZM23.94,23.61c.06-.13.06-.35-.15-.36-.26.02-.47.34-.4.54.08.23.43.12.56-.18ZM23.78,20.22c.03.13.29.03.46-.18.09-.11.15-.28.01-.29-.21.01-.5.32-.47.46ZM24.22,19.19c0,.12.24.03.43-.16.09-.1.19-.25.07-.26-.19.01-.49.29-.49.42ZM24.61,20.2c.03.16.32.06.48-.16.08-.11.13-.28-.03-.29-.22.01-.47.3-.45.45ZM23.36,22.52c.07.18.38.07.52-.19.07-.13.08-.32-.1-.34-.25.02-.48.35-.42.52ZM26.22,30.96c.02-.16-.06-.42-.36-.44-.35.02-.49.41-.31.65.21.28.63.14.67-.21ZM24.14,24.95c.05-.15.02-.36-.21-.38-.28.02-.48.36-.38.56.11.24.48.12.59-.18ZM26.39,27.85c.03-.16-.05-.4-.32-.41-.34.02-.5.39-.34.61.18.26.6.13.67-.2ZM24.95,27.85c.03-.16-.03-.4-.29-.41-.32.02-.48.39-.34.61.16.26.57.13.64-.2ZM24.48,26.37c.04-.16,0-.38-.25-.4-.31.02-.48.37-.36.59.14.25.53.13.61-.2ZM25.54,29.38c.02-.16-.04-.41-.33-.43-.33.02-.48.41-.32.64.19.26.6.13.65-.21ZM27.24,17.45c0,.1.22.02.39-.12.08-.07.17-.19.06-.2-.17.01-.45.22-.45.32ZM26.84,18.25c0,.13.27.05.43-.13.08-.09.14-.22,0-.23-.19,0-.44.24-.43.36ZM27.62,18.24c.01.15.29.07.44-.11.07-.09.1-.22-.04-.23-.19,0-.41.22-.4.35ZM27.8,16.76c-.01.07.18,0,.36-.12.03-.02.06-.04.08-.06.03-.03.11-.1.04-.1-.14,0-.46.2-.48.28ZM26.63,17.47c0,.08.21,0,.39-.14,0,0,.02-.01.02-.02.07-.06.18-.17.08-.18-.17.01-.49.24-.49.33ZM27.91,17.44c0,.11.24.04.39-.11.08-.08.14-.19.02-.2-.17,0-.41.21-.42.31ZM26.1,18.27c0,.11.25.03.42-.14.09-.09.16-.22.05-.23-.19,0-.47.26-.47.37ZM27.05,19.03c.07-.1.11-.25-.05-.26-.21,0-.44.25-.42.39.02.17.32.08.47-.13ZM25.56,17.47c-.02.06.18-.01.38-.15.04-.03.08-.06.12-.09.06-.05.11-.1.06-.11-.15.01-.54.26-.56.34ZM25.43,18.27c-.01.11.22.03.41-.14.1-.09.19-.22.08-.23-.18,0-.49.26-.5.37ZM26.07,17.47c-.02.08.19,0,.38-.14.02-.02.05-.04.07-.06.04-.03.15-.14.07-.14-.15,0-.5.24-.53.33ZM24.94,19.19c.02.12.27.03.44-.16.08-.1.17-.25.03-.26-.2.01-.49.29-.47.42ZM28.62,29.38c.02-.17-.08-.41-.38-.43-.37.02-.52.41-.33.64.21.26.66.13.71-.21ZM39.3,41.43c.09.21.44.11.56-.16.06-.14.05-.34-.16-.35-.27.01-.48.33-.4.51ZM39.81,35.7c.03-.15-.03-.4-.31-.42-.33.02-.49.4-.34.62.18.26.58.13.65-.2ZM32.73,22.33c.01-.12-.07-.32-.35-.34-.31.01-.44.29-.3.48.18.24.62.15.65-.14ZM38.86,33.73c-.35.02-.49.41-.32.64.2.27.61.14.67-.21.03-.17-.07-.42-.35-.43ZM32.62,18.12c0-.09-.06-.22-.24-.23-.22,0-.31.22-.19.35.14.15.42.08.43-.11ZM32.12,20.16c.16.21.53.13.56-.12,0-.11-.08-.28-.3-.29-.27.01-.38.25-.25.41ZM39.47,39.61c-.3.02-.49.34-.38.55.12.22.49.11.6-.18.05-.14.04-.36-.21-.37ZM37.09,39.98c.05-.17-.04-.36-.28-.37-.31.02-.48.32-.37.52.14.26.57.15.65-.15ZM38.02,35.28c-.35.02-.5.4-.34.62.19.26.62.13.68-.2.03-.17-.05-.4-.34-.42ZM36.59,43.3c-.27.01-.42.27-.37.42.08.21.42.13.54-.12.05-.12.04-.29-.17-.3ZM27.05,29.38c.03-.17-.07-.41-.36-.43-.36.02-.51.4-.33.64.2.26.64.13.69-.21ZM38.29,42.63c.08.2.42.1.55-.16.06-.12.07-.31-.15-.32-.26.01-.47.31-.4.48ZM38.5,40.92c-.27.01-.46.3-.39.49.09.24.48.14.59-.14.05-.13.04-.33-.2-.35ZM38.27,37.38c.17.25.58.13.65-.19.04-.16-.03-.39-.3-.41-.33.02-.5.38-.35.6ZM30.36,26.37c.02-.16-.07-.38-.38-.4-.35.02-.5.34-.36.56.19.28.68.17.73-.17ZM28.34,16.76c-.02.08.19.02.36-.11.01,0,.03-.02.04-.03.01-.01.14-.13.04-.13-.14,0-.42.18-.44.27ZM29.67,24.95c.03-.15-.06-.36-.34-.38-.33.02-.49.33-.36.54.17.27.64.16.7-.16ZM29.41,30.96c.02-.16-.07-.42-.4-.44-.39.02-.52.41-.32.65.23.28.69.14.73-.21ZM27.78,30.96c.02-.17-.09-.42-.39-.44-.39.02-.49.43-.32.65.21.27.66.14.7-.21ZM27.91,27.85c.03-.16-.06-.4-.35-.41-.36.02-.51.39-.34.61.2.26.64.13.69-.2ZM31.73,20.83c-.28.01-.42.27-.29.44.16.23.57.14.61-.13.02-.12-.07-.3-.31-.31ZM31.64,23.25c-.33.01-.47.31-.33.51.18.25.65.15.69-.15.02-.14-.08-.35-.36-.36ZM31.09,30.96c.02-.17-.1-.42-.42-.44-.42.02-.52.43-.33.65.23.27.71.14.75-.21ZM31.57,25.97c-.36.02-.51.34-.35.56.21.29.7.18.74-.17.02-.16-.09-.38-.4-.4ZM31.95,32.57c.02-.17-.1-.43-.43-.44-.38.02-.53.38-.35.63.22.31.74.19.78-.18ZM31.2,24.95c.02-.15-.08-.36-.37-.38-.37.02-.48.35-.35.54.19.27.66.16.71-.16ZM27.98,22.47c.12.24.53.15.62-.14.04-.13-.01-.32-.25-.34-.3.01-.45.31-.37.48ZM26.18,18.77c-.21.01-.46.27-.44.4.02.15.3.06.46-.15.08-.1.14-.25-.01-.26ZM25.93,22c-.27.01-.48.32-.4.5.09.21.46.11.57-.17.06-.13.04-.32-.18-.34ZM25.98,21.14c.06-.12.07-.3-.12-.31-.25.01-.46.3-.41.47.06.2.41.1.54-.15ZM26.37,23.61c.04-.13.02-.35-.23-.36-.3.02-.49.34-.38.54.12.23.51.12.61-.18ZM28.45,19.16c.07.17.39.08.49-.13.05-.1.04-.25-.13-.26-.23,0-.42.25-.36.39ZM25.85,26.37c.04-.15-.01-.38-.28-.4-.33.02-.5.37-.36.59.16.25.56.13.64-.2ZM26.73,22.5c.12.22.49.11.59-.17.04-.12.03-.32-.21-.34-.29.01-.48.32-.38.5ZM26.89,19.75c-.24.01-.45.27-.4.43.05.18.38.09.51-.14.06-.11.07-.28-.11-.29ZM27.29,26.37c.03-.16-.04-.38-.31-.4-.35.02-.51.37-.36.59.17.25.6.13.67-.2ZM27.7,23.61c.04-.14-.01-.35-.26-.36-.32.02-.47.33-.38.51.12.25.56.15.64-.15ZM26.77,24.95c.04-.14,0-.36-.27-.38-.32.02-.49.36-.37.56.15.24.56.12.64-.18ZM25.42,24.95c.05-.15,0-.36-.24-.38-.3.02-.49.36-.38.56.13.24.52.12.61-.18ZM26.93,20.83c-.26.01-.46.3-.39.47.09.2.44.1.55-.15.05-.12.05-.3-.16-.31ZM25.51,20.18c.03.18.35.09.5-.14.07-.11.1-.28-.07-.29-.22.01-.45.27-.43.43ZM28.61,17.44c.02.11.26.04.39-.11.06-.07.11-.19-.02-.2-.18,0-.39.21-.37.31ZM44.81,38.23c-.23.02-.44.43-.35.62.07.17.32.04.44-.23.06-.15.08-.37-.08-.39ZM43.86,38.23c-.25.02-.45.4-.37.6.08.2.37.08.49-.21.06-.15.06-.37-.12-.39ZM45.3,38.87c.06.14.28,0,.39-.25.07-.15.1-.37-.05-.39-.21.02-.42.46-.35.64ZM43.46,40.2c.07.17.33.04.46-.22.07-.15.1-.36-.07-.37-.24.02-.46.41-.39.59ZM25.12,23.61c.05-.14.03-.35-.19-.36-.28.01-.48.34-.39.54.1.23.47.12.58-.18ZM44.74,39.98c.08-.15.12-.36-.03-.37-.21.02-.44.41-.39.59.04.17.29.04.42-.22ZM43.38,37.41c.11.22.41.08.51-.22.05-.16.03-.39-.17-.41-.27.02-.44.41-.34.63ZM24.96,22.33c.06-.13.06-.32-.14-.34-.26.01-.47.32-.41.5.07.22.42.11.55-.17ZM24.94,21.14c.07-.12.1-.3-.08-.31-.25.01-.48.32-.43.49.06.17.37.07.51-.17ZM30.52,17.33c.04-.08.03-.19-.1-.2-.17,0-.32.17-.29.28.04.15.31.09.4-.08ZM30.51,16.65c.05-.07.06-.16-.04-.17-.15,0-.31.16-.3.25.02.11.24.06.34-.08ZM44.88,37.19c.05-.16.04-.39-.14-.41-.26.02-.43.45-.32.65.1.18.36.05.46-.24ZM31.08,16.48c-.16,0-.28.16-.25.25.04.11.26.06.34-.08.03-.06.03-.16-.09-.17ZM28.9,18.12c.05-.09.08-.22-.08-.23-.2,0-.4.22-.37.35.04.15.32.07.44-.11ZM31.32,22.33c.02-.13-.06-.32-.32-.34-.33.01-.44.31-.32.48.16.24.6.15.65-.14ZM30.53,17.89c-.2,0-.35.2-.29.33.07.17.38.1.45-.1.03-.09,0-.22-.16-.23ZM31.47,20.04c.02-.11-.05-.28-.27-.29-.28.01-.38.26-.29.41.13.21.51.12.56-.12ZM31.65,18.12c.02-.09-.03-.22-.2-.23-.22,0-.32.21-.25.33.1.17.41.1.45-.1ZM31.18,17.13c-.18,0-.3.17-.25.28.06.15.34.09.4-.08.03-.08,0-.19-.15-.2ZM29.73,20.16c.11.2.48.12.55-.12.03-.11-.02-.28-.23-.29-.25.01-.41.25-.33.41ZM28.92,16.74c-.01.1.2.04.35-.1.07-.06.14-.16.04-.17-.15,0-.38.17-.39.26ZM29.35,17.43c.03.13.28.07.4-.1.05-.08.07-.19-.06-.2-.18,0-.36.19-.34.3ZM29.87,16.48c-.15,0-.35.17-.34.26,0,.1.22.04.35-.1.06-.06.11-.16,0-.17ZM29.78,18.77c-.22,0-.38.22-.33.37.07.19.42.11.5-.11.04-.1.01-.25-.18-.26ZM30.5,19.14c.1.19.45.11.51-.11.03-.1-.02-.25-.22-.26-.23,0-.37.22-.29.37ZM28.79,26.37c.03-.16-.06-.38-.34-.4-.36.02-.51.37-.35.59.19.25.63.13.69-.2ZM27.89,19.75c-.25.01-.44.27-.38.43.08.18.42.09.53-.14.05-.11.05-.28-.15-.29ZM28.19,24.95c.03-.15-.04-.36-.31-.38-.35.02-.48.35-.37.54.15.27.6.16.68-.16ZM27.88,18.77c-.22,0-.43.25-.39.39.04.17.35.08.48-.13.06-.1.08-.25-.09-.26ZM28.05,20.83c-.28.01-.44.29-.38.44.09.23.48.14.58-.13.05-.12.01-.3-.2-.31ZM28.59,20.16c.08.21.45.12.55-.12.04-.11.01-.28-.19-.29-.26.01-.41.26-.36.41ZM29.94,22.33c.03-.12-.02-.32-.29-.34-.29.01-.46.29-.35.48.14.24.57.15.63-.14ZM30.74,21.14c.03-.12-.04-.3-.28-.31-.28.01-.43.27-.32.44.14.23.54.14.6-.13ZM30.52,23.61c.03-.14-.06-.35-.33-.36-.32.01-.48.31-.35.51.16.26.62.15.68-.15ZM29.78,18.12c.05-.09.04-.22-.12-.23-.21,0-.38.22-.33.35.06.15.35.07.45-.11ZM29.08,23.61c.03-.14-.03-.35-.3-.36-.31.01-.48.31-.36.51.14.25.59.15.66-.15ZM29.47,21.14c.04-.12-.01-.3-.24-.31-.27.01-.44.27-.35.44.11.23.51.14.59-.13ZM36.18,41.27c.04-.13,0-.33-.27-.35-.3.01-.46.3-.36.49.13.24.55.14.63-.14ZM38.63,44.35c-.23.01-.44.27-.43.4.01.16.3.08.47-.13.1-.13.11-.26-.04-.27ZM38.74,43.3c-.26.01-.45.29-.41.44.05.18.36.09.51-.14.07-.12.09-.29-.09-.3ZM39.49,44.62c.09-.11.15-.26,0-.27-.22.01-.46.29-.45.42.01.14.28.06.45-.15ZM39.37,38.61c.04-.14,0-.37-.26-.39-.32.02-.49.37-.37.57.14.24.54.12.63-.18ZM38.42,39.98c.05-.15,0-.36-.25-.37-.3.02-.48.32-.38.52.12.25.53.15.63-.15ZM38.35,45.55c.09-.1.16-.24.02-.24-.21.01-.44.26-.44.37,0,.13.25.05.43-.13ZM40.65,38.61c.05-.15.01-.37-.23-.39-.31.02-.49.36-.37.57.13.23.5.12.6-.18ZM41.18,35.7c.04-.17-.03-.4-.28-.42-.32.02-.48.4-.34.62.16.26.55.13.62-.2ZM39.77,43.6c.08-.12.12-.29-.06-.3-.24.01-.45.29-.43.44.03.18.33.09.49-.14ZM40.32,33.73c-.33.02-.47.41-.31.64.18.27.58.14.63-.21.02-.16-.04-.42-.32-.43ZM40.3,40.15c.09.23.45.11.57-.18.06-.15.04-.36-.18-.37-.3.02-.47.36-.39.55ZM39.78,42.15c-.27.01-.46.32-.42.48.05.19.38.1.53-.16.07-.13.09-.31-.11-.32ZM40.29,37.19c.04-.16-.02-.39-.27-.41-.32.02-.49.38-.35.6.15.25.54.13.63-.19ZM37.69,43.3c-.26.01-.43.27-.39.42.05.21.39.13.53-.12.06-.11.08-.29-.13-.3ZM37.71,44.35c-.22.01-.43.26-.4.4.04.16.33.08.48-.13.07-.11.1-.26-.08-.27ZM35.59,47.07c.08-.07.13-.18.01-.18-.17,0-.37.19-.36.28,0,.1.22.02.35-.1ZM35.82,45.3c-.22.01-.37.22-.35.34.04.16.33.1.45-.1.06-.1.07-.24-.1-.24ZM35.69,39.98c.03-.15-.04-.36-.31-.37-.33.02-.48.32-.35.52.16.25.6.15.67-.15ZM36.54,42.47c.05-.15,0-.31-.23-.32-.27.01-.45.28-.36.46.11.22.49.13.59-.13ZM34.98,46.15c-.19,0-.34.18-.31.3.03.14.29.08.4-.09.05-.08.06-.21-.09-.21ZM35.79,46.15c-.2,0-.37.21-.35.31.02.13.26.07.4-.1.07-.08.1-.21-.05-.21ZM37.57,45.3c-.21.01-.42.24-.41.36,0,.14.27.07.44-.12.08-.1.13-.24-.02-.24ZM37.25,46.37c.11-.1.15-.21.04-.21-.19,0-.42.22-.43.33,0,.11.22.04.39-.11ZM36.72,45.3c-.22.01-.4.24-.38.36.03.14.3.07.44-.12.07-.09.11-.24-.06-.24ZM36.73,44.35c-.22,0-.41.24-.37.38.04.18.36.11.49-.11.06-.11.07-.26-.12-.27ZM36.56,46.37c.08-.08.13-.21,0-.21-.19,0-.39.21-.39.31,0,.12.24.06.4-.1ZM42.45,35.7c.04-.17-.02-.4-.26-.42-.31.02-.46.43-.31.65.16.22.49.09.56-.23ZM27.31,16.77c0,.06.18,0,.37-.12.04-.03.09-.05.13-.09.06-.05.07-.07.03-.08-.05.01-.1.03-.15.04-.16.07-.36.19-.37.24ZM31.59,19.14c.13.19.48.11.51-.11.01-.1-.05-.25-.26-.26-.24,0-.35.22-.25.37ZM42.9,39.61c-.25.02-.47.37-.4.57.07.2.37.08.5-.2.07-.15.08-.36-.1-.37ZM42.88,41.27c.08-.14.12-.34-.05-.35-.23.01-.46.35-.42.53.04.18.32.07.47-.19ZM22.4,25.16c.11.21.44.08.54-.21.06-.15.04-.36-.17-.38-.28.02-.48.39-.37.59ZM43.7,41.27c.08-.14.14-.34-.01-.35-.21.02-.47.38-.42.55.04.16.29.04.44-.21ZM32.77,24.95c.01-.14-.08-.36-.39-.38-.34.02-.49.33-.33.54.21.27.69.17.72-.16ZM42.59,42.47c.09-.13.15-.31,0-.32-.22.02-.48.36-.45.52.03.14.28.03.44-.19ZM22.84,23.61c.06-.14.07-.35-.12-.36-.26.02-.48.37-.4.56.08.2.39.08.52-.2ZM22.83,22c-.24.02-.48.35-.43.52.05.18.35.07.49-.19.07-.13.11-.32-.06-.34ZM40.82,40.92c-.25.01-.47.33-.41.51.07.21.4.11.54-.16.07-.14.07-.34-.13-.35ZM41.99,34.16c.03-.17-.05-.42-.3-.43-.32.02-.46.44-.28.67.18.23.53.09.58-.24ZM41.29,38.8c.1.23.46.12.57-.18.05-.15.03-.37-.19-.39-.28.02-.47.37-.38.57ZM41.58,37.19c.04-.16,0-.39-.24-.41-.3.02-.47.38-.36.6.13.25.5.13.6-.19ZM41.43,43.6c.1-.12.17-.29.02-.3-.21.01-.49.33-.47.48.02.13.27.03.44-.18ZM40.64,43.6c.09-.12.14-.29-.02-.3-.24.01-.47.32-.45.46.02.15.3.06.47-.16ZM40.87,42.47c.08-.13.11-.31-.07-.32-.23.01-.46.31-.43.48.03.2.35.1.5-.16ZM34.93,46.89c-.17,0-.33.18-.32.27.01.11.23.04.35-.08.06-.07.1-.18-.03-.18ZM42.44,38.82c.1.2.42.08.53-.21.06-.15.05-.37-.16-.39-.27.02-.47.4-.37.6ZM42.58,36.78c-.29.02-.47.42-.34.63.13.21.45.08.55-.22.05-.16.02-.39-.21-.41ZM41.87,40.92c-.25.01-.48.35-.41.53.06.18.36.07.5-.19.07-.14.1-.34-.09-.35ZM41.84,39.61c-.26.02-.47.34-.4.55.07.22.41.11.54-.18.06-.14.07-.36-.14-.37ZM41.78,42.47c.09-.13.13-.31-.03-.32-.24.01-.47.35-.44.5.03.17.32.06.48-.18ZM35.47,22.33c0-.13-.13-.32-.38-.34-.31.01-.37.32-.19.5.22.21.58.11.57-.17ZM38.2,21.14c-.03-.12-.17-.3-.39-.31-.02,0-.04,0-.05,0-.22.05-.17.37.09.52.22.12.42,0,.36-.21ZM37.01,34.37c.21.27.65.14.7-.21.02-.16-.06-.42-.37-.43-.36.02-.51.41-.32.64ZM37.73,18.77s-.05,0-.07.02c-.13.09.07.38.3.45.17.05.24-.05.16-.21-.06-.1-.22-.25-.38-.26ZM37.84,19.75s-.04,0-.07.01c-.18.07-.06.37.19.48.2.09.35-.02.27-.21-.05-.11-.2-.28-.39-.29ZM38.01,38.61c.04-.15-.02-.37-.29-.39-.35.02-.48.35-.37.55.14.27.58.17.67-.16ZM37.72,42.47c.06-.13.03-.31-.19-.32-.26.01-.45.28-.38.46.08.22.45.13.57-.13ZM37.22,20.04c-.04-.11-.18-.28-.38-.29-.02,0-.05,0-.07.01-.18.07-.12.35.11.47.21.11.4,0,.34-.19ZM36.64,21.33c.23.15.47.04.43-.19-.03-.12-.16-.3-.38-.31-.02,0-.04,0-.06,0-.23.05-.22.35.02.5ZM36.35,22c-.26.03-.32.34-.09.52.23.19.54.07.51-.19-.02-.13-.15-.32-.39-.34,0,0-.02,0-.03,0ZM37.47,41.27c.05-.14,0-.34-.24-.35-.29.01-.47.3-.38.49.11.24.51.15.61-.14ZM35.93,18.77s-.05,0-.07,0c-.17.06-.1.31.11.43.2.1.37,0,.31-.17-.03-.1-.17-.25-.35-.26ZM35.92,17.89s-.05,0-.07.02c-.13.07,0,.32.22.39.17.06.27-.03.19-.18-.05-.09-.18-.22-.34-.23ZM36.85,18.77s-.05,0-.08.02c-.15.08,0,.36.23.44.18.06.29-.04.22-.2-.05-.1-.19-.25-.37-.26ZM36.71,17.89s-.04,0-.06.02c-.12.08.1.36.32.4.14.03.19-.06.11-.19-.06-.09-.21-.22-.36-.23ZM33.88,20.04c0-.11-.1-.28-.32-.29-.27.01-.35.27-.19.43.19.18.52.09.51-.14ZM35.7,44.35c-.23,0-.4.24-.34.38.07.18.4.11.5-.11.05-.11.04-.26-.16-.27ZM34.95,23.61c0-.14-.12-.35-.39-.36-.33.01-.42.34-.23.54.22.23.62.12.62-.18ZM34.64,21.14c0-.12-.12-.3-.36-.31-.29.01-.36.3-.19.47.2.2.55.1.54-.15ZM36.58,38.61c.03-.14-.03-.37-.32-.39-.33.02-.49.33-.36.55.16.27.61.16.69-.16ZM34.13,22.33c0-.13-.11-.32-.37-.34-.32.01-.42.32-.24.5.21.21.6.11.6-.17ZM35.82,24.95c0-.15-.12-.36-.4-.38-.34.02-.43.36-.24.56.23.24.64.12.64-.18ZM35.96,23.25s-.02,0-.03,0c-.29.03-.37.36-.13.56.24.2.58.08.56-.2,0-.14-.14-.35-.4-.36ZM35.74,33.73c-.38.02-.52.41-.33.64.22.27.67.14.72-.21.02-.17-.08-.42-.39-.43ZM36.48,35.28c-.35.02-.51.36-.36.59.19.29.66.18.72-.17.03-.15-.05-.4-.36-.42ZM36.78,37.35c.17.28.63.17.7-.17.03-.16-.05-.39-.33-.41-.33.02-.5.35-.36.57ZM35.97,37.19c.03-.16-.06-.39-.36-.41-.35.02-.51.35-.36.57.19.28.65.17.72-.17ZM34.45,27.85c.01-.16-.11-.4-.42-.41-.38.02-.51.39-.3.61.24.26.69.14.72-.2ZM33.59,26.37c.01-.15-.09-.38-.41-.4-.38.02-.51.37-.3.59.23.25.68.13.71-.2ZM34.7,47.65s.01,0,.02-.01c.07-.06.1-.13.01-.13-.14,0-.32.15-.33.22,0,.08.18.02.3-.08ZM33.5,23.61c0-.13-.09-.35-.38-.36-.34.02-.46.34-.27.54.22.23.63.12.65-.18ZM34.32,24.95c0-.15-.11-.36-.4-.38-.35.02-.47.36-.27.56.23.24.66.12.67-.18ZM33.31,17.89s-.02,0-.02,0c-.19.02-.25.24-.1.36.16.13.4.05.39-.13,0-.09-.1-.22-.27-.23ZM33.36,21.14c0-.12-.08-.3-.34-.31-.3.01-.4.3-.23.47.2.2.56.1.57-.15ZM32.72,19.16c.16.17.47.08.47-.13,0-.1-.07-.25-.29-.26-.25,0-.33.25-.19.39ZM35.1,38.61c.03-.15-.06-.37-.35-.39-.35.02-.5.33-.35.55.18.27.64.17.7-.16ZM34.57,45.65c.06.16.36.1.45-.1.04-.09.04-.24-.15-.24-.23.01-.36.22-.31.34ZM34.23,46.89c-.16,0-.29.16-.27.25.03.12.24.07.34-.07.05-.07.06-.18-.07-.18ZM34.5,34.16c.02-.17-.09-.42-.41-.43-.4.02-.51.39-.36.61.22.3.72.19.77-.18ZM33.89,47.72c0,.09.19.03.29-.07.07-.07.08-.14-.01-.15-.14,0-.28.14-.28.21ZM35.75,20.22c.22.14.45.04.4-.18-.02-.11-.15-.28-.36-.29-.02,0-.04,0-.05,0-.21.04-.2.32.02.46ZM35.05,17.13s-.04,0-.06.01c-.12.07.03.29.23.35.14.04.21-.04.15-.16-.04-.08-.17-.19-.31-.2ZM34.92,19.19c.2.12.41.03.37-.16-.02-.1-.13-.25-.33-.26-.02,0-.03,0-.05,0-.2.04-.19.29.01.42ZM35.08,17.89s-.04,0-.06,0c-.16.06-.08.3.13.39.18.07.31-.01.26-.17-.03-.09-.16-.22-.32-.23ZM34.87,16.48s-.03,0-.04.01c-.09.06.14.28.3.3.1,0,.12-.06.05-.14-.06-.07-.2-.16-.3-.17ZM35.48,20.83c-.25.02-.3.31-.08.49.22.17.52.07.49-.17-.01-.12-.13-.3-.37-.31,0,0-.02,0-.03,0ZM35.75,17.13s-.04,0-.05.01c-.1.07.11.31.3.35.12.02.17-.06.09-.16-.06-.08-.2-.19-.34-.2ZM34.17,18.27c.18.11.37.03.34-.14-.02-.09-.13-.22-.3-.23-.01,0-.03,0-.04,0-.18.04-.17.26,0,.37ZM33.66,16.48s-.03,0-.04,0c-.12.04-.06.22.09.28.13.06.24-.01.19-.12-.03-.07-.12-.16-.24-.17ZM33.92,18.77c-.22.02-.27.26-.09.4.18.15.45.06.43-.15-.01-.1-.11-.25-.31-.26,0,0-.02,0-.03,0ZM34.28,16.48s-.03,0-.05.01c-.1.06.04.25.2.29.12.03.18-.03.12-.14-.04-.07-.15-.16-.27-.17ZM34.32,17.13s-.03,0-.05,0c-.14.05-.07.26.11.34.15.06.28-.01.23-.15-.03-.08-.14-.19-.29-.2ZM34.66,19.75c-.23.02-.28.3-.09.45.21.16.48.06.46-.16-.01-.11-.13-.28-.35-.29,0,0-.02,0-.03,0Z"/>
    </g>
  </g>
</svg>