<?xml version="1.0" encoding="UTF-8"?>
<svg id="Layer_1" data-name="Layer 1" xmlns="http://www.w3.org/2000/svg" viewBox="0 0 64 64">
  <defs>
    <style>
      .cls-1 {
        fill: #fff;
      }

      .cls-2 {
        fill: #d44327;
      }

      .cls-3 {
        fill: #333;
      }
    </style>
  </defs>
  <path class="cls-1" d="M32,0C14.33,0,0,14.33,0,32s14.33,32,32,32,32-14.33,32-32S49.67,0,32,0Z"/>
  <g>
    <path class="cls-3" d="M53.08,13.64l-1.95,11.05h-5.28c-.61-3.8-2.12-6.71-4.53-8.75s-5.28-3.05-8.62-3.05c-2.47,0-4.5.54-6.08,1.61-1.58,1.08-2.55,2.62-2.91,4.63-.24,1.37-.11,2.5.4,3.4.5.89,1.29,1.6,2.37,2.13,1.07.52,2.32.92,3.73,1.2l4.52.82c3.42.55,6.41,1.38,8.96,2.5,2.55,1.12,4.44,2.68,5.69,4.67,1.25,1.99,1.59,4.63,1,7.92-.56,3.2-1.71,5.88-3.44,8.03-.27.34-.56.67-.86.98,5.87-4.67,10.21-11.36,11.52-18.78,1.27-7.2-.56-13.71-4.52-18.36Z"/>
    <path class="cls-3" d="M36.51,6.4c-3.41,0-6.79.67-9.98,1.88,1.76-.4,3.61-.6,5.56-.6,3.06,0,5.83.56,8.28,1.68,2.45,1.12,4.4,2.93,5.84,5.42.32.56.6,1.16.85,1.8l1.24-7.01c-3.3-2.02-7.31-3.17-11.79-3.17Z"/>
    <path class="cls-2" d="M39.76,40.88c-.58-.87-1.44-1.56-2.58-2.09-1.14-.52-2.42-.9-3.85-1.13l-4.6-.76c-3.24-.55-6.1-1.42-8.56-2.61-2.47-1.19-4.29-2.82-5.48-4.91-1.19-2.08-1.5-4.72-.93-7.93.52-2.93,1.54-5.38,3.07-7.34-5.32,4.61-9.2,10.92-10.43,17.87-1.13,6.41.19,12.28,3.3,16.77l1.79-10.15h5.28c.46,2.61,1.35,4.84,2.7,6.69,1.34,1.85,3.02,3.26,5.02,4.22,2,.96,4.24,1.44,6.71,1.44s4.56-.57,6.13-1.72c1.57-1.14,2.55-2.77,2.92-4.87.26-1.46.1-2.63-.48-3.5Z"/>
    <path class="cls-2" d="M31.49,56.32c-3.34,0-6.33-.59-8.98-1.78-2.65-1.19-4.72-3.07-6.21-5.66-.33-.58-.62-1.2-.87-1.87l-1.14,6.47c3.55,2.6,8.07,4.12,13.2,4.12,3.66,0,7.28-.77,10.68-2.16-2.05.59-4.28.88-6.68.88Z"/>
  </g>
</svg>