<?xml version="1.0" encoding="UTF-8"?>
<svg id="Layer_1" data-name="Layer 1" xmlns="http://www.w3.org/2000/svg" xmlns:xlink="http://www.w3.org/1999/xlink" viewBox="0 0 64 64">
  <defs>
    <style>
      .cls-1 {
        fill: none;
      }

      .cls-2 {
        fill: #00a15c;
      }

      .cls-3 {
        clip-path: url(#clippath-1);
      }

      .cls-4 {
        fill: #fff;
      }

      .cls-5 {
        fill: #0bad67;
      }

      .cls-6 {
        fill: #056a38;
      }

      .cls-7 {
        fill: #00c479;
      }

      .cls-8 {
        clip-path: url(#clippath);
      }
    </style>
    <clipPath id="clippath">
      <ellipse class="cls-1" cx="31.95" cy="32" rx="32.04" ry="32.02"/>
    </clipPath>
    <clipPath id="clippath-1">
      <ellipse class="cls-1" cx="31.95" cy="32" rx="32.04" ry="32.02"/>
    </clipPath>
  </defs>
  <g class="cls-8">
    <g>
      <path class="cls-7" d="M51.47,57.4c-5.4,4.15-12.17,6.62-19.51,6.62C14.26,64.02-.09,49.68-.09,32c0-6.52,1.95-12.57,5.29-17.63,1.05,4.94,2.98,9.56,5.61,13.68-.05.7-.08,1.41-.08,2.12,0,16.27,13.19,29.45,29.47,29.45,3.99,0,7.79-.79,11.26-2.22Z"/>
      <path class="cls-2" d="M61.55,44.27c-2.16,5.21-5.67,9.73-10.09,13.13-3.47,1.43-7.27,2.22-11.26,2.22-16.27,0-29.47-13.19-29.47-29.45,0-.71.03-1.42.08-2.12,7.39,11.58,20.36,19.25,35.12,19.25,5.52,0,10.79-1.07,15.61-3.02Z"/>
      <path class="cls-6" d="M63.99,32c0,4.35-.87,8.49-2.44,12.27-4.82,1.95-10.09,3.02-15.61,3.02-14.76,0-27.73-7.67-35.12-19.25C11.87,13.19,23.96,1.38,38.95.75c14.33,3.19,25.05,15.97,25.05,31.25Z"/>
      <path class="cls-5" d="M38.95.75c-14.98.63-27.07,12.44-28.13,27.3-2.64-4.12-4.56-8.74-5.61-13.68C10.94,5.7,20.78-.02,31.95-.02c2.4,0,4.75.27,7,.77Z"/>
    </g>
  </g>
  <g class="cls-3">
    <g>
      <path class="cls-4" d="M52.38,27.79c-1.22-.41-2.45-.74-3.7-.99-1.06-.22-2.23-.38-3.51-.49-1.28-.11-2.49-.04-3.64.21-.93.21-1.64.51-2.13.92-.49.41-.66.96-.51,1.64.11.5.36.88.76,1.13s.92.44,1.59.58c.67.13,1.47.23,2.4.29.93.06,1.99.14,3.18.26,1.87.15,3.58.39,5.14.72,1.55.33,2.93.83,4.12,1.49,1.19.66,2.2,1.55,3.01,2.69.81,1.14,1.42,2.6,1.82,4.4.51,2.3.52,4.32.02,6.06-.49,1.75-1.32,3.24-2.49,4.48-1.17,1.24-2.57,2.26-4.21,3.05-1.64.8-3.34,1.39-5.09,1.78-1.39.31-2.85.52-4.36.63-1.51.11-3.04.13-4.57.05-1.53-.07-3.03-.23-4.49-.47-1.46-.24-2.84-.58-4.13-1l2.46-10.2c1.43.51,2.88.92,4.38,1.23,1.26.28,2.67.48,4.21.59s3.06,0,4.56-.33c1.14-.25,1.9-.58,2.28-.99.38-.4.51-.86.4-1.36-.12-.54-.44-.95-.97-1.22-.53-.28-1.22-.47-2.07-.59-.85-.11-1.82-.2-2.9-.26-1.08-.06-2.24-.16-3.47-.3-1.81-.2-3.39-.5-4.75-.89-1.36-.39-2.53-.93-3.5-1.6-.97-.67-1.77-1.5-2.38-2.49-.61-.99-1.08-2.19-1.39-3.59-.47-2.12-.5-4.07-.09-5.85.41-1.78,1.16-3.36,2.24-4.73,1.08-1.37,2.41-2.52,3.99-3.45,1.57-.93,3.31-1.61,5.2-2.03,1.39-.31,2.78-.48,4.16-.5,1.38-.02,2.73.03,4.06.17,1.32.14,2.58.33,3.76.58,1.18.25,2.25.49,3.2.73l-2.58,9.66Z"/>
      <polygon class="cls-4" points="-3.93 15.81 -1.49 26.82 14.78 23.21 23.15 60.97 35.67 58.2 27.29 20.44 43.55 16.84 41.11 5.83 -3.93 15.81"/>
    </g>
  </g>
</svg>