<?xml version="1.0" encoding="UTF-8"?>
<svg id="Layer_1" data-name="Layer 1" xmlns="http://www.w3.org/2000/svg" xmlns:xlink="http://www.w3.org/1999/xlink" viewBox="0 0 64 64">
  <defs>
    <style>
      .cls-1 {
        fill: url(#New_Gradient_Swatch_5-2);
      }

      .cls-2 {
        fill: #fff;
      }

      .cls-3 {
        fill: url(#New_Gradient_Swatch_5);
      }

      .cls-4 {
        fill: #fbb03b;
      }
    </style>
    <linearGradient id="New_Gradient_Swatch_5" data-name="New Gradient Swatch 5" x1="-.04" y1="32" x2="63.96" y2="32" gradientUnits="userSpaceOnUse">
      <stop offset="0" stop-color="#0071bc"/>
      <stop offset="1" stop-color="#00a99d"/>
    </linearGradient>
    <linearGradient id="New_Gradient_Swatch_5-2" data-name="New Gradient Swatch 5" x1="15.17" y1="51.27" x2="50.99" y2="15.45" xlink:href="#New_Gradient_Swatch_5"/>
  </defs>
  <path class="cls-2" d="M31.96,64C14.31,64-.04,49.64-.04,32S14.31,0,31.96,0s32,14.36,32,32-14.35,32-32,32Z"/>
  <path class="cls-3" d="M31.96,1c17.09,0,31,13.91,31,31s-13.91,31-31,31S.96,49.09.96,32,14.87,1,31.96,1M31.96,0C14.29,0-.04,14.33-.04,32s14.33,32,32,32,32-14.33,32-32S49.63,0,31.96,0h0Z"/>
  <g>
    <path class="cls-1" d="M37.4,50.55l2.16,2.95h-16.1c22.69-2.11,33.15-23.3,29.1-33.52,6.03,12.73-6.48,26.78-15.16,30.57ZM17.21,24.83h8.8v25.04s-1.94,2.66-1.94,2.66c4.63-.52,8.97-1.9,12.83-4.03v-23.67h10.88v-5.99s2.78-3.81,2.78-3.81h-20.67c4.73-2.28,9.61-2.48,9.61-2.48C12.58,12.54-1.06,48.44,20.22,52.92c-16.08-5.88-7.03-24.06-3.01-28.09Z"/>
    <path class="cls-4" d="M15.13,23.83s3.86-5.4,10.61-8.8h-13.38l2.77,3.81v4.99Z"/>
  </g>
</svg>