<?xml version="1.0" encoding="UTF-8"?>
<svg id="Layer_1" data-name="Layer 1" xmlns="http://www.w3.org/2000/svg" viewBox="0 0 64 64">
  <defs>
    <style>
      .cls-1 {
        fill: blue;
      }

      .cls-2 {
        fill: #ff0;
      }
    </style>
  </defs>
  <circle class="cls-1" cx="32" cy="32" r="32"/>
  <path class="cls-2" d="M49.97,29.51c-.82-2.2-2.04-4.13-3.67-5.8-1.51-1.56-3.38-2.81-5.57-3.78h9.83v-10.53H13.4v10.53h9.85c-2.17.98-4.03,2.24-5.54,3.82-1.62,1.69-2.85,3.67-3.67,5.93-.82,2.27-1.23,4.67-1.23,7.2,0,2.36.42,4.6,1.27,6.73.84,2.13,2.08,4.02,3.7,5.67,1.62,1.64,3.63,2.94,6.03,3.9,2.4.96,5.13,1.43,8.2,1.43,4.31,0,7.94-.89,10.9-2.67,2.95-1.78,5.14-4.07,6.57-6.87l-10.73-3.07c-.4,1.11-1.21,1.98-2.43,2.6-1.22.62-2.52.93-3.9.93-1.47,0-2.82-.41-4.07-1.23-1.25-.82-1.93-2.17-2.07-4.03h24.6c.09-.53.17-1.14.23-1.83.07-.69.1-1.37.1-2.03,0-2.4-.41-4.7-1.23-6.9ZM26,32.67c.22-1.69.84-3.02,1.87-4,1.02-.98,2.33-1.47,3.93-1.47s2.91.49,3.93,1.47c1.02.98,1.64,2.31,1.87,4h-11.6Z"/>
</svg>