<?xml version="1.0" encoding="UTF-8"?>
<svg id="Layer_1" data-name="Layer 1" xmlns="http://www.w3.org/2000/svg" xmlns:xlink="http://www.w3.org/1999/xlink" viewBox="0 0 64 64">
  <defs>
    <style>
      .cls-1 {
        fill: url(#linear-gradient);
      }

      .cls-2 {
        fill: #fff;
      }
    </style>
    <linearGradient id="linear-gradient" x1="17.9" y1="42.38" x2="46.01" y2="14.27" gradientUnits="userSpaceOnUse">
      <stop offset="0" stop-color="#ed8121"/>
      <stop offset="1" stop-color="#ffbe13"/>
    </linearGradient>
  </defs>
  <path class="cls-2" d="M60.99,18.48C53.53,2.47,34.49-4.46,18.48,3.01,2.47,10.47-4.46,29.51,3.01,45.52c7.47,16.01,26.5,22.94,42.52,15.47,16.01-7.47,22.94-26.5,15.47-42.52Z"/>
  <path class="cls-1" d="M40.65,18.18c-2.19,0-4.15,1.35-4.93,3.4l-3.54,9.32-5.16-12.72h-12.94l15.45,35.84h4.75l15.64-35.84h-9.27ZM32.9,51.91h-1.99l-2.39-5.47,9.17-24.12c.46-1.22,1.65-2.04,2.96-2.04h6.05l-13.8,31.62Z"/>
</svg>